<?xml version="1.0" encoding="UTF-8"?>
<!DOCTYPE svg PUBLIC "-//W3C//DTD SVG 1.1//EN" "http://www.w3.org/Graphics/SVG/1.1/DTD/svg11.dtd">
<svg xmlns="http://www.w3.org/2000/svg" version="1.1" width="512px" height="512px" style="shape-rendering:geometricPrecision; text-rendering:geometricPrecision; image-rendering:optimizeQuality; fill-rule:evenodd; clip-rule:evenodd" xmlns:xlink="http://www.w3.org/1999/xlink">
<g><path style="opacity:0.956" fill="#000000" d="M 174.5,-0.5 C 178.167,-0.5 181.833,-0.5 185.5,-0.5C 196.244,5.35932 198.41,13.6927 192,24.5C 178,38.5 178,52.5 192,66.5C 204.105,89.7345 203.105,112.401 189,134.5C 179.59,145.099 170.257,145.099 161,134.5C 159.566,130.594 159.233,126.594 160,122.5C 163.527,116.779 166.527,110.779 169,104.5C 169.667,100.167 169.667,95.8333 169,91.5C 163.413,81.9941 158.08,72.3274 153,62.5C 146.349,36.6155 153.516,15.6155 174.5,-0.5 Z"/></g>
<g><path style="opacity:0.956" fill="#000000" d="M 254.5,-0.5 C 258.167,-0.5 261.833,-0.5 265.5,-0.5C 276.244,5.35932 278.41,13.6927 272,24.5C 258,38.5 258,52.5 272,66.5C 284.105,89.7345 283.105,112.401 269,134.5C 259.59,145.099 250.257,145.099 241,134.5C 239.566,130.594 239.233,126.594 240,122.5C 243.527,116.779 246.527,110.779 249,104.5C 249.667,100.167 249.667,95.8333 249,91.5C 243.413,81.9941 238.08,72.3274 233,62.5C 226.349,36.6155 233.516,15.6155 254.5,-0.5 Z"/></g>
<g><path style="opacity:0.956" fill="#000000" d="M 334.5,-0.5 C 338.167,-0.5 341.833,-0.5 345.5,-0.5C 356.244,5.35932 358.41,13.6927 352,24.5C 338,38.5 338,52.5 352,66.5C 364.105,89.7345 363.105,112.401 349,134.5C 339.59,145.099 330.257,145.099 321,134.5C 319.566,130.594 319.233,126.594 320,122.5C 323.527,116.779 326.527,110.779 329,104.5C 329.667,100.167 329.667,95.8333 329,91.5C 323.413,81.9941 318.08,72.3274 313,62.5C 306.349,36.6155 313.516,15.6155 334.5,-0.5 Z"/></g>
<g><path style="opacity:0.977" fill="#000000" d="M 511.5,490.5 C 511.5,494.5 511.5,498.5 511.5,502.5C 510.196,503.987 509.03,505.654 508,507.5C 505.985,508.697 504.151,510.03 502.5,511.5C 337.833,511.5 173.167,511.5 8.5,511.5C 7.01307,510.196 5.3464,509.03 3.5,508C 2.30342,505.985 0.970083,504.151 -0.5,502.5C -0.5,498.5 -0.5,494.5 -0.5,490.5C 1.31481,486.521 4.31481,483.688 8.5,482C 14.4908,481.501 20.4908,481.334 26.5,481.5C 33.5597,402.174 70.5597,341.341 137.5,299C 160.305,285.787 184.638,276.62 210.5,271.5C 210.334,262.161 210.5,252.827 211,243.5C 219.636,215.588 238.469,204.088 267.5,209C 285.212,214.045 296.046,225.545 300,243.5C 300.5,252.827 300.666,262.161 300.5,271.5C 379.271,289.103 435.105,334.77 468,408.5C 477.445,431.946 482.945,456.28 484.5,481.5C 490.509,481.334 496.509,481.501 502.5,482C 506.685,483.688 509.685,486.521 511.5,490.5 Z M 252.5,238.5 C 262.817,238.32 268.65,243.32 270,253.5C 270.499,258.155 270.666,262.821 270.5,267.5C 260.5,266.167 250.5,266.167 240.5,267.5C 240.243,261.102 240.743,254.769 242,248.5C 244.106,243.557 247.606,240.224 252.5,238.5 Z M 249.5,297.5 C 333.96,299.287 395.793,337.287 435,411.5C 445.353,433.726 451.52,457.059 453.5,481.5C 321.5,481.5 189.5,481.5 57.5,481.5C 66.523,402.241 107.19,346.075 179.5,313C 202.109,303.914 225.443,298.748 249.5,297.5 Z"/></g>
</svg>
