<?xml version="1.0" encoding="UTF-8"?>
<!DOCTYPE svg PUBLIC "-//W3C//DTD SVG 1.1//EN" "http://www.w3.org/Graphics/SVG/1.1/DTD/svg11.dtd">
<svg xmlns="http://www.w3.org/2000/svg" version="1.1" width="512px" height="512px" style="shape-rendering:geometricPrecision; text-rendering:geometricPrecision; image-rendering:optimizeQuality; fill-rule:evenodd; clip-rule:evenodd" xmlns:xlink="http://www.w3.org/1999/xlink">
<g><path style="opacity:0.962" fill="#000000" d="M 511.5,121.5 C 511.5,124.833 511.5,128.167 511.5,131.5C 510.028,133.134 508.362,134.634 506.5,136C 473.828,136.167 441.162,136.667 408.5,137.5C 410.227,140.287 411.394,143.287 412,146.5C 412.455,153.53 412.455,160.53 412,167.5C 453.329,240.156 478.662,318.156 488,401.5C 491.6,431.06 493.433,460.726 493.5,490.5C 497.846,490.334 502.179,490.501 506.5,491C 508.362,492.366 510.028,493.866 511.5,495.5C 511.5,498.833 511.5,502.167 511.5,505.5C 510.028,507.134 508.362,508.634 506.5,510C 339.167,510.667 171.833,510.667 4.5,510C 2.63834,508.634 0.971672,507.134 -0.5,505.5C -0.5,502.167 -0.5,498.833 -0.5,495.5C 0.971672,493.866 2.63834,492.366 4.5,491C 12.4931,490.5 20.4931,490.334 28.5,490.5C 28.5,435.167 28.5,379.833 28.5,324.5C 20.4931,324.666 12.4931,324.5 4.5,324C 2.63834,322.634 0.971672,321.134 -0.5,319.5C -0.5,316.167 -0.5,312.833 -0.5,309.5C 43.4248,236.957 107.092,191.957 190.5,174.5C 273.886,191.759 337.386,236.759 381,309.5C 382.775,315.512 381.275,320.345 376.5,324C 368.841,324.5 361.174,324.666 353.5,324.5C 353.667,338.504 353.5,352.504 353,366.5C 351.065,370.802 347.732,372.802 343,372.5C 337.767,372.883 334.434,370.55 333,365.5C 332.5,351.837 332.333,338.171 332.5,324.5C 238.167,324.5 143.833,324.5 49.5,324.5C 49.5,379.833 49.5,435.167 49.5,490.5C 57.1667,490.5 64.8333,490.5 72.5,490.5C 72.3334,460.831 72.5,431.165 73,401.5C 78.4642,371.368 96.4642,355.368 127,353.5C 156.603,355.097 174.603,370.43 181,399.5C 181.5,429.832 181.667,460.165 181.5,490.5C 231.833,490.5 282.167,490.5 332.5,490.5C 332.333,476.829 332.5,463.163 333,449.5C 334.434,444.45 337.767,442.117 343,442.5C 347.732,442.198 351.065,444.198 353,448.5C 353.5,462.496 353.667,476.496 353.5,490.5C 378.5,490.5 403.5,490.5 428.5,490.5C 428.579,406.961 412.745,326.628 381,249.5C 370.625,225.737 357.958,203.404 343,182.5C 336.662,187.755 329.329,190.088 321,189.5C 294.052,186.65 282.052,171.65 285,144.5C 285.735,142.129 286.568,139.795 287.5,137.5C 249.504,136.667 211.504,136.167 173.5,136C 167.975,133.081 166.142,128.581 168,122.5C 185.483,96.8272 209.65,81.3272 240.5,76C 250.85,74.4982 261.183,74.1649 271.5,75C 251.971,55.8051 232.805,36.3051 214,16.5C 211.843,6.31784 216.01,1.15118 226.5,1C 277.954,-2.47988 315.787,18.3534 340,63.5C 357.58,28.4503 385.746,7.61697 424.5,1C 434.167,0.333333 443.833,0.333333 453.5,1C 464.115,1.93002 467.949,7.43002 465,17.5C 445.833,36.6667 426.667,55.8333 407.5,75C 450.788,71.8209 485.455,87.3209 511.5,121.5 Z M 248.5,22.5 C 283.149,26.6979 307.815,44.8646 322.5,77C 318.127,78.7131 314.293,81.2131 311,84.5C 290.299,63.6317 269.465,42.965 248.5,22.5 Z M 427.5,21.5 C 428.552,21.3505 429.552,21.5172 430.5,22C 408.667,43.8333 386.833,65.6667 365,87.5C 362.106,84.6386 358.939,82.1386 355.5,80C 369.37,47.9141 393.37,28.4141 427.5,21.5 Z M 249.5,95.5 C 266.967,94.2933 283.467,97.6266 299,105.5C 299.499,109.152 299.665,112.818 299.5,116.5C 266.832,116.667 234.165,116.5 201.5,116C 215.807,105.008 231.807,98.1749 249.5,95.5 Z M 332.5,95.5 C 343.817,95.1452 350.484,100.479 352.5,111.5C 349.294,125.437 340.96,129.937 327.5,125C 320.086,118.705 318.586,111.205 323,102.5C 325.529,99.1151 328.696,96.7818 332.5,95.5 Z M 411.5,95.5 C 436.197,94.0018 458.197,100.835 477.5,116C 442.5,116.667 407.5,116.667 372.5,116C 373.12,113.527 373.786,111.027 374.5,108.5C 386.152,101.951 398.485,97.6175 411.5,95.5 Z M 372.5,138.5 C 389.045,139.597 394.545,147.93 389,163.5C 381.61,171.746 373.443,172.579 364.5,166C 356.687,153.751 359.353,144.584 372.5,138.5 Z M 310.5,140.5 C 315.437,142.631 320.437,144.798 325.5,147C 329.114,147.936 332.78,148.436 336.5,148.5C 338.132,160.384 332.965,167.384 321,169.5C 304.552,164.595 301.052,154.928 310.5,140.5 Z M 396.5,184.5 C 423.106,230.074 442.272,278.741 454,330.5C 466.127,383.141 472.293,436.474 472.5,490.5C 464.833,490.5 457.167,490.5 449.5,490.5C 449.496,406.466 433.996,325.466 403,247.5C 394.935,228.202 385.435,209.702 374.5,192C 382.796,191.936 390.129,189.436 396.5,184.5 Z M 189.5,198.5 C 193.768,200.933 197.268,204.266 200,208.5C 217.643,238.255 229.477,270.255 235.5,304.5C 205.5,304.5 175.5,304.5 145.5,304.5C 151.335,272.825 161.835,242.825 177,214.5C 181,209.005 185.166,203.671 189.5,198.5 Z M 157.5,205.5 C 141.601,236.527 130.268,269.194 123.5,303.5C 91.8386,304.667 60.1719,304.833 28.5,304C 60.9834,257.345 103.983,224.511 157.5,205.5 Z M 223.5,205.5 C 277.017,224.511 320.017,257.345 352.5,304C 320.828,304.833 289.161,304.667 257.5,303.5C 250.732,269.194 239.399,236.527 223.5,205.5 Z M 119.5,374.5 C 137.022,372.343 149.855,379.01 158,394.5C 158.822,396.788 159.489,399.122 160,401.5C 160.5,431.165 160.667,460.831 160.5,490.5C 138.167,490.5 115.833,490.5 93.5,490.5C 93.0387,459.792 93.5387,429.125 95,398.5C 99.111,386.221 107.278,378.221 119.5,374.5 Z M 233.5,390.5 C 249.503,390.333 265.503,390.5 281.5,391C 284.494,391.406 286.661,392.906 288,395.5C 288.167,403.167 288.333,410.833 288.5,418.5C 288.638,426.931 288.138,435.265 287,443.5C 285.352,444.717 283.519,445.55 281.5,446C 264.1,446.958 246.767,446.624 229.5,445C 227.951,443.786 226.785,442.286 226,440.5C 225.333,425.833 225.333,411.167 226,396.5C 227.542,393.108 230.042,391.108 233.5,390.5 Z"/></g>
<g><path style="opacity:0.964" fill="#000000" d="M 225.5,370.5 C 246.836,370.333 268.169,370.5 289.5,371C 299.765,374.264 306.265,381.098 309,391.5C 309.667,409.5 309.667,427.5 309,445.5C 306.265,455.902 299.765,462.736 289.5,466C 268.167,466.667 246.833,466.667 225.5,466C 213.986,462.829 207.152,455.329 205,443.5C 204.333,426.833 204.333,410.167 205,393.5C 207.716,382.007 214.55,374.341 225.5,370.5 Z M 233.5,390.5 C 230.042,391.108 227.542,393.108 226,396.5C 225.333,411.167 225.333,425.833 226,440.5C 226.785,442.286 227.951,443.786 229.5,445C 246.767,446.624 264.1,446.958 281.5,446C 283.519,445.55 285.352,444.717 287,443.5C 288.138,435.265 288.638,426.931 288.5,418.5C 288.333,410.833 288.167,403.167 288,395.5C 286.661,392.906 284.494,391.406 281.5,391C 265.503,390.5 249.503,390.333 233.5,390.5 Z"/></g>
<g><path style="opacity:0.896" fill="#000000" d="M 338.5,397.5 C 349.49,395.992 354.324,400.658 353,411.5C 349.723,417.109 344.89,418.942 338.5,417C 330.555,410.503 330.555,404.003 338.5,397.5 Z"/></g>
</svg>
