<?xml version="1.0" encoding="UTF-8"?>
<!DOCTYPE svg PUBLIC "-//W3C//DTD SVG 1.1//EN" "http://www.w3.org/Graphics/SVG/1.1/DTD/svg11.dtd">
<svg xmlns="http://www.w3.org/2000/svg" version="1.1" width="512px" height="512px" style="shape-rendering:geometricPrecision; text-rendering:geometricPrecision; image-rendering:optimizeQuality; fill-rule:evenodd; clip-rule:evenodd" xmlns:xlink="http://www.w3.org/1999/xlink">
<g><path style="opacity:1" fill="#7b7b7b" d="M 31.5,101.5 C 180.833,101.5 330.167,101.5 479.5,101.5C 479.5,120.833 479.5,140.167 479.5,159.5C 329.833,159.5 180.167,159.5 30.5,159.5C 30.1797,140.091 30.513,120.757 31.5,101.5 Z"/></g>
<g><path style="opacity:0.973" fill="#787878" d="M 31.5,226.5 C 180.833,226.5 330.167,226.5 479.5,226.5C 479.5,245.833 479.5,265.167 479.5,284.5C 329.833,284.5 180.167,284.5 30.5,284.5C 30.1797,265.091 30.513,245.757 31.5,226.5 Z"/></g>
<g><path style="opacity:0.973" fill="#7b7b7b" d="M 31.5,351.5 C 180.833,351.5 330.167,351.5 479.5,351.5C 479.5,370.833 479.5,390.167 479.5,409.5C 329.833,409.5 180.167,409.5 30.5,409.5C 30.1797,390.091 30.513,370.757 31.5,351.5 Z"/></g>
</svg>
