<?xml version="1.0" encoding="UTF-8"?>
<!DOCTYPE svg PUBLIC "-//W3C//DTD SVG 1.1//EN" "http://www.w3.org/Graphics/SVG/1.1/DTD/svg11.dtd">
<svg xmlns="http://www.w3.org/2000/svg" version="1.1" width="512px" height="512px" style="shape-rendering:geometricPrecision; text-rendering:geometricPrecision; image-rendering:optimizeQuality; fill-rule:evenodd; clip-rule:evenodd" xmlns:xlink="http://www.w3.org/1999/xlink">
<g><path style="opacity:0.993" fill="#565656" d="M 255.5,11.5 C 255.5,41.8333 255.5,72.1667 255.5,102.5C 200.687,106.317 165.853,134.651 151,187.5C 143.928,231.172 157.428,267.005 191.5,295C 210.538,308.846 231.872,316.013 255.5,316.5C 255.5,324.167 255.5,331.833 255.5,339.5C 230.479,339.153 205.479,339.653 180.5,341C 144.621,347.43 118.288,366.763 101.5,399C 143.203,443.008 194.536,465.508 255.5,466.5C 255.5,477.5 255.5,488.5 255.5,499.5C 165.286,496.66 95.7855,457.66 47,382.5C 0.158625,298.687 -0.174708,214.687 46,130.5C 94.7698,54.512 164.603,14.8454 255.5,11.5 Z"/></g>
<g><path style="opacity:1" fill="#7b7b7b" d="M 255.5,11.5 C 358.255,15.9264 432.422,63.9264 478,155.5C 510.202,233.466 505.536,309.132 464,382.5C 415.222,457.65 345.722,496.65 255.5,499.5C 255.5,488.5 255.5,477.5 255.5,466.5C 316.462,465.51 367.795,443.01 409.5,399C 392.712,366.763 366.379,347.43 330.5,341C 305.521,339.653 280.521,339.153 255.5,339.5C 255.5,331.833 255.5,324.167 255.5,316.5C 301.412,313.808 334.246,291.808 354,250.5C 370.893,202.574 360.727,161.407 323.5,127C 303.677,111.223 281.01,103.057 255.5,102.5C 255.5,72.1667 255.5,41.8333 255.5,11.5 Z"/></g>
</svg>
