<?xml version="1.0" encoding="UTF-8"?>
<!DOCTYPE svg PUBLIC "-//W3C//DTD SVG 1.1//EN" "http://www.w3.org/Graphics/SVG/1.1/DTD/svg11.dtd">
<svg xmlns="http://www.w3.org/2000/svg" version="1.1" width="512px" height="512px" style="shape-rendering:geometricPrecision; text-rendering:geometricPrecision; image-rendering:optimizeQuality; fill-rule:evenodd; clip-rule:evenodd" xmlns:xlink="http://www.w3.org/1999/xlink">
<g><path style="opacity:0.926" fill="#000000" d="M 341.5,-0.5 C 344.167,-0.5 346.833,-0.5 349.5,-0.5C 352.185,3.03208 354.019,7.03208 355,11.5C 355.75,12.1258 356.584,12.6258 357.5,13C 373.167,13.3333 388.833,13.6667 404.5,14C 414.997,16.5004 420.33,23.167 420.5,34C 420.143,43.0285 415.809,49.3618 407.5,53C 398.152,54.9275 388.819,54.9275 379.5,53C 376.735,50.0052 375.902,46.5052 377,42.5C 377.5,40.6667 378.667,39.5 380.5,39C 387.167,38.6667 393.833,38.3333 400.5,38C 404.795,36.1549 405.462,33.4882 402.5,30C 386.5,29.6667 370.5,29.3333 354.5,29C 342.066,24.962 336.566,16.462 338,3.5C 338.69,1.64977 339.856,0.316435 341.5,-0.5 Z"/></g>
<g><path style="opacity:0.939" fill="#000000" d="M 402.5,511.5 C 304.5,511.5 206.5,511.5 108.5,511.5C 99.7617,507.925 93.9284,501.592 91,492.5C 90.3333,478.5 90.3333,464.5 91,450.5C 91.9004,445.937 94.0671,442.104 97.5,439C 94.0671,435.896 91.9004,432.063 91,427.5C 90.3333,413.5 90.3333,399.5 91,385.5C 91.9004,380.937 94.0671,377.104 97.5,374C 93.9131,370.995 91.7464,367.162 91,362.5C 90.3333,348.5 90.3333,334.5 91,320.5C 91.9695,316.214 93.8029,312.38 96.5,309C 93.7447,305.654 91.9113,301.821 91,297.5C 90.6667,291.167 90.3333,284.833 90,278.5C 83.9049,286.599 77.0716,294.099 69.5,301C 50.559,309.895 36.3924,305.062 27,286.5C 24.6588,278.571 25.3255,270.904 29,263.5C 95.6265,185.871 162.627,108.538 230,31.5C 241.84,16.6624 256.006,13.8291 272.5,23C 297.333,51.1667 322.167,79.3333 347,107.5C 347.5,98.1726 347.666,88.8393 347.5,79.5C 337.136,80.4856 333.47,76.1523 336.5,66.5C 337.5,65.6667 338.5,64.8333 339.5,64C 369.167,63.3333 398.833,63.3333 428.5,64C 433.299,67.0711 434.465,71.2378 432,76.5C 428.673,79.1539 424.839,80.1539 420.5,79.5C 420.666,87.5069 420.5,95.5069 420,103.5C 418.471,106.516 415.971,107.849 412.5,107.5C 408.823,107.664 406.323,105.997 405,102.5C 404.5,94.8406 404.334,87.1739 404.5,79.5C 390.833,79.5 377.167,79.5 363.5,79.5C 363.333,95.5035 363.5,111.503 364,127.5C 377.333,142.833 390.667,158.167 404,173.5C 404.333,159.833 404.667,146.167 405,132.5C 407.541,127.931 411.375,126.431 416.5,128C 417.667,129.167 418.833,130.333 420,131.5C 420.333,151.833 420.667,172.167 421,192.5C 439.667,213.833 458.333,235.167 477,256.5C 488.902,271.719 488.069,286.219 474.5,300C 463.701,306.913 452.701,307.246 441.5,301C 433.928,294.099 427.095,286.599 421,278.5C 420.667,284.833 420.333,291.167 420,297.5C 419.089,301.821 417.255,305.654 414.5,309C 417.197,312.38 419.03,316.214 420,320.5C 420.667,334.5 420.667,348.5 420,362.5C 419.254,367.162 417.087,370.995 413.5,374C 416.933,377.104 419.1,380.937 420,385.5C 420.667,399.5 420.667,413.5 420,427.5C 419.1,432.063 416.933,435.896 413.5,439C 416.933,442.104 419.1,445.937 420,450.5C 420.667,464.5 420.667,478.5 420,492.5C 417.072,501.592 411.238,507.925 402.5,511.5 Z M 252.5,33.5 C 259.59,33.4636 265.09,36.4636 269,42.5C 333.627,117.462 398.627,192.129 464,266.5C 470.918,273.274 471.085,280.107 464.5,287C 459.8,290.212 455.133,290.212 450.5,287C 386.598,214.521 322.931,141.854 259.5,69C 256.833,68.3333 254.167,68.3333 251.5,69C 249,71.5 246.5,74 244,76.5C 182.931,147.245 121.431,217.745 59.5,288C 49.7483,290.957 43.7483,287.457 41.5,277.5C 42.2764,273.28 44.1098,269.614 47,266.5C 112.373,192.129 177.373,117.462 242,42.5C 245.103,38.886 248.603,35.886 252.5,33.5 Z M 254.5,89.5 C 257.056,90.5434 259.223,92.2101 261,94.5C 264.167,98.3333 267.333,102.167 270.5,106C 260.5,106.667 250.5,106.667 240.5,106C 245.377,100.627 250.044,95.1274 254.5,89.5 Z M 225.5,122.5 C 245.503,122.333 265.503,122.5 285.5,123C 299.5,139 313.5,155 327.5,171C 279.5,171.667 231.5,171.667 183.5,171C 197.709,154.961 211.709,138.795 225.5,122.5 Z M 168.5,187.5 C 226.504,187.167 284.504,187.5 342.5,188.5C 356.048,204.427 369.715,220.26 383.5,236C 298.167,236.667 212.833,236.667 127.5,236C 141.539,220.049 155.205,203.883 168.5,187.5 Z M 112.5,252.5 C 207.834,252.333 303.167,252.5 398.5,253C 400.709,254.873 402.542,257.04 404,259.5C 404.667,271.167 404.667,282.833 404,294.5C 402.878,296.624 401.378,298.457 399.5,300C 374.552,301.462 349.552,301.962 324.5,301.5C 324.717,295.768 324.217,290.101 323,284.5C 321.01,280.51 317.843,278.01 313.5,277C 293.5,276.333 273.5,276.333 253.5,277C 248.401,278.695 246.568,282.195 248,287.5C 248.465,288.931 249.299,290.097 250.5,291C 269.741,292.475 289.074,292.975 308.5,292.5C 308.5,360.167 308.5,427.833 308.5,495.5C 273.167,495.5 237.833,495.5 202.5,495.5C 202.5,427.833 202.5,360.167 202.5,292.5C 209.841,292.666 217.174,292.5 224.5,292C 231.321,286.606 230.987,281.606 223.5,277C 214.833,276.333 206.167,276.333 197.5,277C 193.157,278.01 189.99,280.51 188,284.5C 186.783,290.101 186.283,295.768 186.5,301.5C 161.448,301.962 136.448,301.462 111.5,300C 109.622,298.457 108.122,296.624 107,294.5C 106.333,282.833 106.333,271.167 107,259.5C 108.666,257.004 110.5,254.671 112.5,252.5 Z M 112.5,317.5 C 137.167,317.5 161.833,317.5 186.5,317.5C 186.5,333.833 186.5,350.167 186.5,366.5C 161.448,366.962 136.448,366.462 111.5,365C 109.622,363.457 108.122,361.624 107,359.5C 106.333,347.5 106.333,335.5 107,323.5C 108.36,320.977 110.193,318.977 112.5,317.5 Z M 324.5,317.5 C 349.169,317.333 373.836,317.5 398.5,318C 401,319.167 402.833,321 404,323.5C 404.667,335.5 404.667,347.5 404,359.5C 402.878,361.624 401.378,363.457 399.5,365C 374.552,366.462 349.552,366.962 324.5,366.5C 324.5,350.167 324.5,333.833 324.5,317.5 Z M 111.5,382.5 C 136.5,382.5 161.5,382.5 186.5,382.5C 186.5,398.833 186.5,415.167 186.5,431.5C 161.448,431.962 136.448,431.462 111.5,430C 109.622,428.457 108.122,426.624 107,424.5C 106.333,412.5 106.333,400.5 107,388.5C 108.332,386.34 109.832,384.34 111.5,382.5 Z M 324.5,382.5 C 349.502,382.333 374.502,382.5 399.5,383C 401.378,384.543 402.878,386.376 404,388.5C 404.667,400.5 404.667,412.5 404,424.5C 402.878,426.624 401.378,428.457 399.5,430C 374.552,431.462 349.552,431.962 324.5,431.5C 324.5,415.167 324.5,398.833 324.5,382.5 Z M 116.5,446.5 C 139.833,446.5 163.167,446.5 186.5,446.5C 186.5,463.167 186.5,479.833 186.5,496.5C 161.448,496.962 136.448,496.462 111.5,495C 109.622,493.457 108.122,491.624 107,489.5C 106.333,477.5 106.333,465.5 107,453.5C 108.985,449.321 112.152,446.988 116.5,446.5 Z M 324.5,446.5 C 349.544,446.048 374.544,446.548 399.5,448C 401.378,449.543 402.878,451.376 404,453.5C 404.667,465.5 404.667,477.5 404,489.5C 402.878,491.624 401.378,493.457 399.5,495C 374.552,496.462 349.552,496.962 324.5,496.5C 324.5,479.833 324.5,463.167 324.5,446.5 Z"/></g>
<g><path style="opacity:0.919" fill="#000000" d="M 228.5,365.5 C 233.527,365.366 236.694,367.699 238,372.5C 238.667,386.833 238.667,401.167 238,415.5C 236.535,421.653 232.702,423.82 226.5,422C 225,421.167 223.833,420 223,418.5C 222.333,402.167 222.333,385.833 223,369.5C 224.5,367.531 226.333,366.198 228.5,365.5 Z"/></g>
</svg>
