<?xml version="1.0" encoding="UTF-8"?>
<!DOCTYPE svg PUBLIC "-//W3C//DTD SVG 1.1//EN" "http://www.w3.org/Graphics/SVG/1.1/DTD/svg11.dtd">
<svg xmlns="http://www.w3.org/2000/svg" version="1.1" width="512px" height="512px" style="shape-rendering:geometricPrecision; text-rendering:geometricPrecision; image-rendering:optimizeQuality; fill-rule:evenodd; clip-rule:evenodd" xmlns:xlink="http://www.w3.org/1999/xlink">
<g><path style="opacity:0.974" fill="#000000" d="M 233.5,-0.5 C 248.167,-0.5 262.833,-0.5 277.5,-0.5C 377.766,12.0408 449.266,64.0408 492,155.5C 502.296,180.684 508.796,206.684 511.5,233.5C 511.5,248.167 511.5,262.833 511.5,277.5C 498.959,377.766 446.959,449.266 355.5,492C 330.316,502.296 304.316,508.796 277.5,511.5C 262.833,511.5 248.167,511.5 233.5,511.5C 133.234,498.959 61.734,446.959 19,355.5C 8.70393,330.316 2.20393,304.316 -0.5,277.5C -0.5,262.833 -0.5,248.167 -0.5,233.5C 12.0408,133.234 64.0408,61.734 155.5,19C 180.684,8.70393 206.684,2.20393 233.5,-0.5 Z M 237.5,36.5 C 238.498,69.9959 238.832,103.663 238.5,137.5C 216.231,136.771 194.231,133.938 172.5,129C 171.572,128.612 170.905,127.945 170.5,127C 179.646,98.0169 194.646,72.6836 215.5,51C 222.385,45.3974 229.718,40.5641 237.5,36.5 Z M 272.5,36.5 C 286.179,42.6753 297.679,51.6753 307,63.5C 321.418,82.8316 332.585,103.998 340.5,127C 340.095,127.945 339.428,128.612 338.5,129C 316.769,133.938 294.769,136.771 272.5,137.5C 272.5,103.833 272.5,70.1667 272.5,36.5 Z M 169.5,51.5 C 155.597,72.3063 144.597,94.6397 136.5,118.5C 122.788,113.766 109.788,107.6 97.5,100C 117.966,78.5995 141.966,62.4328 169.5,51.5 Z M 341.5,51.5 C 369.034,62.4328 393.034,78.5995 413.5,100C 401.212,107.6 388.212,113.766 374.5,118.5C 366.403,94.6397 355.403,72.3063 341.5,51.5 Z M 73.5,127.5 C 90.9351,136.882 108.935,145.215 127.5,152.5C 120.767,180.764 117.1,209.431 116.5,238.5C 89.1667,238.5 61.8333,238.5 34.5,238.5C 37.7868,197.967 50.7868,160.967 73.5,127.5 Z M 434.5,127.5 C 435.675,127.281 436.675,127.614 437.5,128.5C 460.413,161.568 473.413,198.235 476.5,238.5C 449.167,238.5 421.833,238.5 394.5,238.5C 393.9,209.431 390.233,180.764 383.5,152.5C 391.783,148.905 400.116,145.405 408.5,142C 417.713,137.899 426.38,133.066 434.5,127.5 Z M 160.5,161.5 C 186.169,167.459 212.169,171.125 238.5,172.5C 238.5,194.5 238.5,216.5 238.5,238.5C 209.167,238.5 179.833,238.5 150.5,238.5C 151.621,212.534 154.954,186.868 160.5,161.5 Z M 348.5,161.5 C 349.931,161.881 350.764,162.881 351,164.5C 356.299,188.894 359.466,213.56 360.5,238.5C 331.167,238.5 301.833,238.5 272.5,238.5C 272.5,216.5 272.5,194.5 272.5,172.5C 298.312,171.276 323.646,167.609 348.5,161.5 Z M 34.5,272.5 C 61.8333,272.5 89.1667,272.5 116.5,272.5C 117.1,301.569 120.767,330.236 127.5,358.5C 109.28,365.361 91.7797,373.694 75,383.5C 50.9434,350.51 37.4434,313.51 34.5,272.5 Z M 150.5,272.5 C 179.833,272.5 209.167,272.5 238.5,272.5C 238.5,294.5 238.5,316.5 238.5,338.5C 212.492,339.793 186.825,343.459 161.5,349.5C 158.889,342.055 157.056,334.388 156,326.5C 153.176,308.595 151.343,290.595 150.5,272.5 Z M 272.5,272.5 C 301.833,272.5 331.167,272.5 360.5,272.5C 359.427,294.327 356.927,315.994 353,337.5C 352.271,341.657 351.104,345.657 349.5,349.5C 324.175,343.459 298.508,339.793 272.5,338.5C 272.5,316.5 272.5,294.5 272.5,272.5 Z M 394.5,272.5 C 421.833,272.5 449.167,272.5 476.5,272.5C 473.557,313.51 460.057,350.51 436,383.5C 419.22,373.694 401.72,365.361 383.5,358.5C 390.233,330.236 393.9,301.569 394.5,272.5 Z M 226.5,373.5 C 230.5,373.5 234.5,373.5 238.5,373.5C 238.667,407.168 238.5,440.835 238,474.5C 221.257,466.759 207.924,455.092 198,439.5C 186.587,422.173 177.42,403.673 170.5,384C 170.905,383.055 171.572,382.388 172.5,382C 190.488,378.17 208.488,375.337 226.5,373.5 Z M 272.5,373.5 C 294.769,374.229 316.769,377.062 338.5,382C 339.428,382.388 340.095,383.055 340.5,384C 331.354,412.983 316.354,438.316 295.5,460C 288.595,465.706 281.095,470.539 273,474.5C 272.5,440.835 272.333,407.168 272.5,373.5 Z M 169.5,459.5 C 141.966,448.567 117.966,432.401 97.5,411C 109.788,403.4 122.788,397.234 136.5,392.5C 144.597,416.36 155.597,438.694 169.5,459.5 Z M 341.5,459.5 C 355.403,438.694 366.403,416.36 374.5,392.5C 388.212,397.234 401.212,403.4 413.5,411C 393.034,432.401 369.034,448.567 341.5,459.5 Z"/></g>
</svg>
